<svg width="32" height="32" viewBox="0 0 32 32" xmlns="http://www.w3.org/2000/svg">
  <!-- Background -->
  <rect width="32" height="32" rx="6" fill="#10b981"/>
  
  <!-- Open Quran Book -->
  <path d="M8 10 L8 24 L15.5 24 L15.5 10 Z" fill="white" opacity="0.95"/>
  <path d="M16.5 10 L16.5 24 L24 24 L24 10 Z" fill="white" opacity="0.95"/>
  
  <!-- Book spine -->
  <rect x="15.5" y="10" width="1" height="14" fill="#059669"/>
  
  <!-- Decorative lines (like Quran text lines) -->
  <line x1="10" y1="13" x2="14" y2="13" stroke="#10b981" stroke-width="0.5"/>
  <line x1="10" y1="15" x2="14" y2="15" stroke="#10b981" stroke-width="0.5"/>
  <line x1="10" y1="17" x2="14" y2="17" stroke="#10b981" stroke-width="0.5"/>
  
  <line x1="18" y1="13" x2="22" y2="13" stroke="#10b981" stroke-width="0.5"/>
  <line x1="18" y1="15" x2="22" y2="15" stroke="#10b981" stroke-width="0.5"/>
  <line x1="18" y1="17" x2="22" y2="17" stroke="#10b981" stroke-width="0.5"/>
  
  <!-- Crescent moon and star -->
  <path d="M14 8.5 C14 7.5 14.5 6.8 15.2 6.5 C14.9 6.4 14.6 6.3 14.3 6.3 C13.3 6.3 12.5 7.1 12.5 8.1 C12.5 9.1 13.3 9.9 14.3 9.9 C14.6 9.9 14.9 9.8 15.2 9.7 C14.5 9.4 14 8.7 14 8.5 Z" fill="#fbbf24"/>
  <path d="M17.5 7.2 L17.7 7.8 L18.3 8 L17.7 8.2 L17.5 8.8 L17.3 8.2 L16.7 8 L17.3 7.8 Z" fill="#fbbf24"/>
</svg>